<mxfile host="app.diagrams.net" modified="2021-05-20T08:19:19.602Z" agent="5.0 (Windows NT 6.1; Win64; x64) AppleWebKit/537.36 (KHTML, like Gecko) Chrome/90.0.4430.212 Safari/537.36" etag="5y1olOJLB7rw47KG-VxV" version="14.6.13" type="github">
  <diagram id="uLB5Eji1Cr28W6Xh5N5R" name="Page-1">
    <mxGraphModel dx="1422" dy="737" grid="1" gridSize="10" guides="1" tooltips="1" connect="1" arrows="1" fold="1" page="1" pageScale="1" pageWidth="827" pageHeight="1169" math="0" shadow="0">
      <root>
        <mxCell id="0" />
        <mxCell id="1" parent="0" />
        <mxCell id="rdyHNnLBZTg6ROo71mEh-1" value="https://nuget.devexpress.com/ryJqHUOU3KXjT2d8GnNUsYCm3fhJwg1m9T8tw4dwcz4fgJ1mG9/api" style="rounded=0;whiteSpace=wrap;html=1;" vertex="1" parent="1">
          <mxGeometry x="40" y="80" width="740" height="60" as="geometry" />
        </mxCell>
      </root>
    </mxGraphModel>
  </diagram>
</mxfile>
